<?xml version="1.0" encoding="utf-8"?>
<!-- Generator: Adobe Illustrator 16.0.0, SVG Export Plug-In . SVG Version: 6.00 Build 0)  -->
<!DOCTYPE svg PUBLIC "-//W3C//DTD SVG 1.1//EN" "http://www.w3.org/Graphics/SVG/1.1/DTD/svg11.dtd">
<svg version="1.1" id="圖層_1" xmlns="http://www.w3.org/2000/svg" xmlns:xlink="http://www.w3.org/1999/xlink" x="0px" y="0px"
	 width="346.551px" height="276.682px" viewBox="0 0 346.551 276.682" enable-background="new 0 0 346.551 276.682"
	 xml:space="preserve">
<g>
	<circle fill="#E6D9C4" cx="173.676" cy="138.341" r="136.841"/>
	<g>
		<circle fill="#E6D9C4" cx="173.009" cy="138.341" r="117.947"/>
		<path id="XMLID_14_" fill="none" d="M180.156,245.148c-55.953,3.596-104.213-38.884-107.792-94.88
			c-3.579-55.995,38.879-104.302,94.832-107.896c55.954-3.595,104.214,38.885,107.793,94.88S236.11,241.555,180.156,245.148z"/>
		
			<text transform="matrix(0.6348 -0.7719 0.7722 0.6351 94.0986 80.6621)" fill="#2F2F30" font-family="'Quicksand-Bold'" font-size="18.0362">·</text>
		
			<text transform="matrix(0.662 -0.7487 0.749 0.6623 96.3896 77.8691)" fill="#2F2F30" font-family="'Quicksand-Bold'" font-size="18.0362"> </text>
		
			<text transform="matrix(0.706 -0.7074 0.7077 0.7063 98.7471 75.082)" fill="#2F2F30" font-family="'Quicksand-Bold'" font-size="18.0362">E</text>
		
			<text transform="matrix(0.7631 -0.6454 0.6456 0.7635 104.8213 68.978)" fill="#2F2F30" font-family="'Quicksand-Bold'" font-size="18.0362">S</text>
		
			<text transform="matrix(0.8153 -0.5781 0.5782 0.8157 111.4131 63.3872)" fill="#2F2F30" font-family="'Quicksand-Bold'" font-size="18.0362">T</text>
		
			<text transform="matrix(0.8668 -0.4974 0.4975 0.8673 118.458 58.314)" fill="#2F2F30" font-family="'Quicksand-Bold'" font-size="18.0362">A</text>
		
			<text transform="matrix(0.9121 -0.4085 0.4085 0.9126 127.7637 52.9927)" fill="#2F2F30" font-family="'Quicksand-Bold'" font-size="18.0362">B</text>
		
			<text transform="matrix(0.9445 -0.3265 0.3265 0.9451 136.4609 49.1162)" fill="#2F2F30" font-family="'Quicksand-Bold'" font-size="18.0362">L</text>
		
			<text transform="matrix(0.9628 -0.2677 0.2676 0.9635 144.3379 46.4536)" fill="#2F2F30" font-family="'Quicksand-Bold'" font-size="18.0362">I</text>
		
			<text transform="matrix(0.9779 -0.206 0.2058 0.9785 148.3125 45.269)" fill="#2F2F30" font-family="'Quicksand-Bold'" font-size="18.0362">S</text>
		
			<text transform="matrix(0.9933 -0.1092 0.109 0.994 156.6953 43.4155)" fill="#2F2F30" font-family="'Quicksand-Bold'" font-size="18.0362">H</text>
		
			<text transform="matrix(0.9992 -0.0123 0.012 0.9999 168.1055 42.2197)" fill="#2F2F30" font-family="'Quicksand-Bold'" font-size="18.0362">E</text>
		
			<text transform="matrix(0.9954 0.087 -0.0874 0.9962 176.6807 42.019)" fill="#2F2F30" font-family="'Quicksand-Bold'" font-size="18.0362">D</text>
		
			<text transform="matrix(0.9859 0.1624 -0.1629 0.9867 188.3955 43.1914)" fill="#2F2F30" font-family="'Quicksand-Bold'" font-size="18.0362"> </text>
		
			<text transform="matrix(0.9792 0.1986 -0.1991 0.9801 192.0586 43.7925)" fill="#2F2F30" font-family="'Quicksand-Bold'" font-size="18.0362"> </text>
		
			<text transform="matrix(0.9713 0.2345 -0.2349 0.9721 195.6807 44.5259)" fill="#2F2F30" font-family="'Quicksand-Bold'" font-size="18.0362"> </text>
		
			<text transform="matrix(0.9619 0.2702 -0.2707 0.9628 199.2959 45.3965)" fill="#2F2F30" font-family="'Quicksand-Bold'" font-size="18.0362"> </text>
		
			<text transform="matrix(0.9513 0.3054 -0.3059 0.9522 202.8643 46.397)" fill="#2F2F30" font-family="'Quicksand-Bold'" font-size="18.0362"> </text>
		
			<text transform="matrix(0.9395 0.3402 -0.3407 0.9403 206.3984 47.5283)" fill="#2F2F30" font-family="'Quicksand-Bold'" font-size="18.0362"> </text>
		
			<text transform="matrix(0.9263 0.3746 -0.3751 0.9271 209.8975 48.7949)" fill="#2F2F30" font-family="'Quicksand-Bold'" font-size="18.0362"> </text>
		
			<text transform="matrix(0.9119 0.4083 -0.4089 0.9127 213.3379 50.1831)" fill="#2F2F30" font-family="'Quicksand-Bold'" font-size="18.0362"> </text>
		
			<text transform="matrix(0.8963 0.4415 -0.4421 0.8971 216.7344 51.7026)" fill="#2F2F30" font-family="'Quicksand-Bold'" font-size="18.0362"> </text>
		
			<text transform="matrix(0.867 0.4965 -0.4972 0.8678 220.0264 53.2227)" fill="#2F2F30" font-family="'Quicksand-Bold'" font-size="18.0362">2</text>
		
			<text transform="matrix(0.8198 0.571 -0.5717 0.8207 227.834 57.6826)" fill="#2F2F30" font-family="'Quicksand-Bold'" font-size="18.0362">0</text>
		
			<text transform="matrix(0.7664 0.6409 -0.6416 0.7672 235.2217 62.8125)" fill="#2F2F30" font-family="'Quicksand-Bold'" font-size="18.0362">1</text>
		
			<text transform="matrix(0.7073 0.7056 -0.7064 0.7081 242.1113 68.5591)" fill="#2F2F30" font-family="'Quicksand-Bold'" font-size="18.0362">7</text>
		
			<text transform="matrix(0.6624 0.748 -0.7487 0.6631 248.4707 75.0166)" fill="#2F2F30" font-family="'Quicksand-Bold'" font-size="18.0362">·</text>
		
			<circle fill="none" stroke="#404041" stroke-linecap="round" stroke-miterlimit="10" stroke-dasharray="2" cx="173.01" cy="138.341" r="131.114"/>
		<path fill="none" stroke="#404041" stroke-linecap="round" stroke-miterlimit="10" d="M84.152,82.325
			c-13.633,20.204-20.338,45.218-17.191,71.314c0.475,3.931,1.167,7.781,2.051,11.548"/>
		<path fill="none" stroke="#404041" stroke-linecap="round" stroke-miterlimit="10" d="M79.155,82.309
			c-13.32,20.411-19.641,45.524-16.093,71.57c0.535,3.923,1.286,7.762,2.228,11.515"/>
		<g>
			<path fill="none" stroke="#404041" stroke-linecap="round" stroke-miterlimit="10" d="M273.792,166.509
				c3.434-12.989,4.422-26.854,2.495-40.995c-2.16-15.859-7.754-30.408-15.929-42.997"/>
			<path fill="none" stroke="#404041" stroke-linecap="round" stroke-miterlimit="10" d="M277.79,166.503
				c3.546-12.958,4.656-26.814,2.854-40.972c-2.021-15.877-7.488-30.474-15.553-43.134"/>
		</g>
		<g>
			
				<circle fill="none" stroke="#404041" stroke-width="3" stroke-linecap="round" stroke-miterlimit="10" cx="173.009" cy="138.341" r="136.841"/>
		</g>
		
			<circle fill="none" stroke="#404041" stroke-width="3" stroke-linecap="round" stroke-miterlimit="10" cx="173.009" cy="138.341" r="125.262"/>
		<g>
			<path id="XMLID_245_" fill-rule="evenodd" clip-rule="evenodd" fill="#2F2F30" d="M37.835,238.213
				c-1.803-14.838-3.603-21.464-5.36-36.302c-11.241,2.866-22.099,6.077-32.475,9.61l21.614,11.235l-1.017,2.063
				c-4.54,9.208-9.164,18.522-13.782,27.761c13.546-3.668,28.09-6.859,43.447-9.545l-9.948-1.916l-1.041-0.207l-0.551-0.104
				l-0.587-0.115L37.835,238.213z"/>
			<path id="XMLID_244_" fill-rule="evenodd" clip-rule="evenodd" fill="#404041" d="M68.456,236.358
				c-6.055,0.994-13.131,1.896-18.961,3.059c6.262,1.198,16.674,2.388,22.94,3.554L68.456,236.358z"/>
			<path id="XMLID_242_" fill-rule="evenodd" clip-rule="evenodd" fill="#2F2F30" d="M306.24,241.119l-9.95,1.916
				c15.361,2.686,29.905,5.877,43.448,9.545c-4.614-9.229-9.238-18.543-13.787-27.761l-1.012-2.063l21.611-11.235
				c-10.376-3.533-21.23-6.744-32.471-9.61c-1.754,14.815-3.555,21.439-5.363,36.302l-0.3,2.479l-0.586,0.115l-0.027,0.22
				l-0.52-0.115L306.24,241.119z"/>
			<path id="XMLID_241_" fill-rule="evenodd" clip-rule="evenodd" fill="#404041" d="M273.278,243.186
				c6.27-1.164,17.523-2.57,23.779-3.769c-5.833-1.163-13.214-2.064-19.269-3.059L273.278,243.186z"/>
			<path id="XMLID_243_" fill-rule="evenodd" clip-rule="evenodd" fill="#404041" d="M42.046,237.746
				c39.105-8.521,84.257-13.229,132.451-13.238c48.195,0.01,93.349,4.717,132.455,13.238c2.377-19.576,4.717-30.766,7.016-50.349
				c-41.722-11.688-89.092-18.171-139.471-18.176c-50.374,0.005-97.745,6.488-139.468,18.176
				C37.329,206.98,39.668,218.165,42.046,237.746z"/>
		</g>
		<g>
			<g>
				<path fill="#E6D9C4" d="M80.734,204.597c0.27-0.059,0.525-0.053,0.766,0.018c0.24,0.072,0.443,0.204,0.605,0.396
					s0.272,0.422,0.33,0.689c0.059,0.273,0.053,0.531-0.018,0.776c-0.071,0.244-0.201,0.446-0.391,0.607
					c-0.189,0.162-0.414,0.271-0.673,0.328c-0.251,0.056-0.495,0.049-0.73-0.019c-0.236-0.067-0.437-0.197-0.604-0.389
					s-0.281-0.423-0.342-0.696c-0.06-0.266-0.056-0.521,0.01-0.764c0.066-0.243,0.192-0.448,0.377-0.612
					C80.25,204.766,80.473,204.654,80.734,204.597z"/>
				<path fill="#E6D9C4" d="M88.357,202.989c0.27-0.055,0.525-0.044,0.765,0.031c0.239,0.076,0.438,0.212,0.598,0.407
					c0.159,0.196,0.265,0.427,0.317,0.694c0.055,0.274,0.044,0.533-0.032,0.776c-0.075,0.242-0.208,0.443-0.4,0.601
					s-0.418,0.263-0.678,0.315c-0.252,0.051-0.496,0.041-0.73-0.032c-0.234-0.072-0.433-0.205-0.596-0.399s-0.274-0.428-0.33-0.703
					c-0.055-0.267-0.047-0.521,0.024-0.763c0.071-0.242,0.199-0.444,0.387-0.606S88.095,203.042,88.357,202.989z"/>
				<path fill="#E6D9C4" d="M95.999,201.518c0.271-0.05,0.525-0.035,0.764,0.045c0.237,0.08,0.435,0.219,0.59,0.417
					c0.156,0.199,0.257,0.432,0.306,0.7c0.049,0.275,0.034,0.534-0.045,0.774c-0.08,0.241-0.216,0.439-0.411,0.594
					c-0.195,0.154-0.422,0.255-0.683,0.303c-0.253,0.046-0.496,0.032-0.729-0.044c-0.233-0.076-0.429-0.213-0.589-0.41
					c-0.16-0.197-0.266-0.433-0.317-0.708c-0.05-0.268-0.038-0.522,0.037-0.763s0.207-0.44,0.397-0.599
					C95.509,201.669,95.736,201.566,95.999,201.518z"/>
				<path fill="#E6D9C4" d="M112.272,206.288c0.149,1.01,0.149,1.847,0.004,2.511c-0.146,0.665-0.468,1.255-0.966,1.774
					c-0.498,0.519-1.227,1.009-2.188,1.474c-0.176-0.31-0.352-0.619-0.529-0.928c0.625-0.358,1.057-0.688,1.298-0.989
					c0.24-0.301,0.385-0.655,0.436-1.06c0.05-0.406,0.025-0.938-0.075-1.595c-0.642-4.202-1.283-8.404-1.924-12.606
					c-0.099-0.65-0.201-1.09-0.304-1.319c-0.104-0.229-0.241-0.395-0.415-0.499c-0.173-0.103-0.508-0.178-1.007-0.223
					c-0.029-0.183-0.057-0.366-0.086-0.549c1.664-0.259,3.329-0.509,4.995-0.75c0.026,0.183,0.053,0.367,0.079,0.55
					c-0.334,0.133-0.573,0.251-0.715,0.356c-0.142,0.105-0.249,0.226-0.321,0.362c-0.072,0.137-0.111,0.332-0.119,0.585
					c-0.007,0.254,0.028,0.639,0.104,1.155C111.116,198.454,111.694,202.371,112.272,206.288z"/>
				<path fill="#E6D9C4" d="M126.233,189.653c0.125,1.135,0.251,2.27,0.377,3.405c-0.385,0.042-0.771,0.085-1.156,0.129
					c-0.16-0.354-0.318-0.664-0.477-0.928c-0.158-0.264-0.315-0.481-0.47-0.654c-0.156-0.172-0.321-0.306-0.496-0.4
					c-0.175-0.094-0.376-0.149-0.602-0.164c-0.226-0.015-0.493-0.005-0.801,0.032c-1.248,0.149-2.495,0.303-3.742,0.462
					c0.251,1.966,0.502,3.932,0.753,5.897c0.833-0.106,1.667-0.21,2.5-0.312c0.342-0.042,0.605-0.121,0.79-0.239
					c0.183-0.117,0.326-0.296,0.429-0.537c0.101-0.24,0.182-0.607,0.243-1.103c0.368-0.043,0.735-0.086,1.103-0.129
					c0.167,1.443,0.333,2.885,0.5,4.328c-0.364,0.042-0.728,0.085-1.092,0.128c-0.162-0.438-0.322-0.764-0.482-0.977
					c-0.159-0.213-0.335-0.358-0.53-0.434c-0.194-0.076-0.475-0.092-0.839-0.047c-0.832,0.102-1.663,0.205-2.494,0.312
					c0.276,2.164,0.553,4.328,0.829,6.493c1.19-0.152,2.381-0.299,3.572-0.441c0.375-0.044,0.676-0.111,0.902-0.203
					c0.226-0.091,0.415-0.223,0.565-0.397c0.15-0.173,0.277-0.392,0.379-0.655c0.102-0.263,0.183-0.532,0.241-0.809
					s0.134-0.68,0.231-1.208c0.382-0.043,0.765-0.086,1.147-0.128c0.072,1.328,0.145,2.655,0.218,3.982
					c-3.541,0.393-7.077,0.829-10.61,1.31c-0.025-0.184-0.05-0.367-0.075-0.551c0.457-0.185,0.756-0.36,0.897-0.527
					c0.141-0.168,0.219-0.39,0.232-0.667c0.015-0.276-0.015-0.692-0.089-1.247c-0.431-3.243-0.861-6.485-1.292-9.728
					c-0.068-0.517-0.139-0.891-0.209-1.123c-0.071-0.23-0.161-0.405-0.269-0.524c-0.108-0.119-0.242-0.208-0.403-0.267
					c-0.16-0.058-0.429-0.112-0.804-0.16c-0.025-0.184-0.05-0.367-0.075-0.551C118.831,190.519,122.53,190.063,126.233,189.653z"/>
				<path fill="#E6D9C4" d="M132.36,201.032c0.22,0.646,0.48,1.149,0.779,1.508c0.299,0.358,0.664,0.61,1.096,0.754
					c0.432,0.145,0.974,0.186,1.626,0.126c0.897-0.082,1.565-0.373,2.006-0.874c0.44-0.501,0.624-1.192,0.549-2.074
					c-0.048-0.565-0.188-1.031-0.424-1.398c-0.234-0.367-0.595-0.7-1.083-0.999c-0.488-0.298-1.224-0.631-2.208-0.995
					c-0.951-0.352-1.714-0.709-2.286-1.075c-0.572-0.365-1.014-0.779-1.326-1.242c-0.312-0.463-0.498-0.983-0.557-1.563
					c-0.086-0.843,0.047-1.596,0.399-2.258s0.914-1.203,1.686-1.619c0.771-0.416,1.679-0.672,2.718-0.766
					c0.604-0.054,1.195-0.076,1.775-0.065c0.581,0.011,1.313,0.086,2.194,0.227c0.083,1.018,0.165,2.035,0.248,3.053
					c-0.39,0.032-0.78,0.064-1.169,0.097c-0.237-0.648-0.509-1.145-0.817-1.491c-0.308-0.345-0.655-0.576-1.04-0.69
					c-0.385-0.114-0.875-0.145-1.468-0.091c-0.515,0.046-0.968,0.18-1.358,0.399c-0.39,0.219-0.687,0.523-0.889,0.911
					c-0.201,0.388-0.277,0.834-0.229,1.338c0.052,0.535,0.196,0.977,0.432,1.326c0.235,0.35,0.58,0.662,1.033,0.939
					c0.453,0.276,1.112,0.572,1.975,0.889c1.044,0.392,1.857,0.774,2.441,1.143c0.585,0.368,1.052,0.805,1.401,1.312
					c0.351,0.507,0.554,1.115,0.611,1.823c0.063,0.792-0.01,1.471-0.22,2.038c-0.21,0.567-0.525,1.041-0.945,1.421
					c-0.42,0.38-0.936,0.674-1.546,0.883c-0.611,0.21-1.288,0.348-2.031,0.417c-1.202,0.111-2.604,0.044-4.216-0.194
					c-0.105-1.031-0.21-2.062-0.316-3.092C131.588,201.109,131.974,201.07,132.36,201.032z"/>
				<path fill="#E6D9C4" d="M145.081,199.955c0.201,0.653,0.446,1.163,0.734,1.53c0.288,0.367,0.645,0.629,1.073,0.786
					c0.428,0.158,0.968,0.214,1.621,0.174c0.898-0.056,1.575-0.327,2.03-0.815c0.454-0.488,0.658-1.173,0.608-2.057
					c-0.032-0.566-0.158-1.036-0.383-1.41c-0.224-0.374-0.574-0.717-1.053-1.03c-0.479-0.313-1.205-0.667-2.177-1.06
					c-0.94-0.379-1.691-0.759-2.251-1.141c-0.562-0.383-0.99-0.809-1.289-1.28c-0.297-0.472-0.469-0.998-0.511-1.579
					c-0.061-0.845,0.094-1.593,0.465-2.245c0.371-0.652,0.948-1.176,1.731-1.569c0.782-0.393,1.696-0.623,2.738-0.686
					c0.604-0.037,1.195-0.041,1.775-0.013c0.58,0.028,1.31,0.124,2.186,0.291c0.053,1.02,0.105,2.039,0.158,3.059
					c-0.391,0.021-0.781,0.041-1.171,0.063c-0.217-0.655-0.475-1.159-0.773-1.514c-0.298-0.354-0.637-0.594-1.019-0.72
					c-0.381-0.125-0.87-0.17-1.464-0.134c-0.516,0.032-0.972,0.151-1.369,0.358c-0.396,0.208-0.701,0.503-0.914,0.885
					c-0.212,0.381-0.302,0.826-0.268,1.331c0.037,0.536,0.168,0.982,0.393,1.339s0.56,0.679,1.004,0.968s1.094,0.604,1.947,0.947
					c1.031,0.422,1.832,0.829,2.405,1.213c0.574,0.385,1.028,0.836,1.362,1.353c0.335,0.517,0.521,1.13,0.557,1.84
					c0.041,0.793-0.053,1.471-0.279,2.031c-0.227,0.562-0.556,1.025-0.986,1.393c-0.431,0.368-0.955,0.647-1.571,0.838
					c-0.617,0.192-1.296,0.311-2.041,0.357c-1.204,0.076-2.603-0.032-4.206-0.318c-0.075-1.034-0.15-2.067-0.225-3.101
					C144.308,200.01,144.694,199.982,145.081,199.955z"/>
				<path fill="#E6D9C4" d="M160.33,199.849c0.018,0.506,0.049,0.876,0.091,1.109c0.043,0.234,0.107,0.417,0.193,0.549
					c0.085,0.134,0.208,0.243,0.369,0.329c0.161,0.085,0.419,0.167,0.776,0.248c0.006,0.185,0.012,0.37,0.018,0.555
					c-1.62,0.051-3.24,0.112-4.86,0.182c-0.008-0.185-0.016-0.37-0.024-0.555c0.471-0.141,0.785-0.289,0.94-0.442
					c0.156-0.155,0.253-0.368,0.292-0.643c0.04-0.274,0.048-0.69,0.026-1.25c-0.13-3.269-0.261-6.537-0.392-9.806
					c-0.021-0.521-0.056-0.9-0.104-1.137c-0.05-0.236-0.123-0.419-0.219-0.547s-0.222-0.229-0.376-0.303
					c-0.154-0.073-0.416-0.151-0.785-0.234c-0.008-0.185-0.016-0.37-0.024-0.555c1.678-0.072,3.355-0.135,5.034-0.188
					c0.006,0.185,0.012,0.37,0.018,0.555c-0.346,0.095-0.596,0.186-0.748,0.274c-0.152,0.088-0.272,0.197-0.359,0.324
					c-0.087,0.128-0.148,0.317-0.183,0.568c-0.035,0.252-0.043,0.638-0.025,1.159C160.102,193.311,160.216,196.58,160.33,199.849z"
					/>
				<path fill="#E6D9C4" d="M170.854,186.959c4.305-0.045,8.61-0.027,12.915,0.052c-0.024,1.316-0.049,2.631-0.073,3.947
					c-0.386-0.007-0.772-0.014-1.158-0.02c-0.163-0.653-0.328-1.169-0.492-1.551c-0.165-0.38-0.342-0.67-0.528-0.869
					c-0.188-0.199-0.391-0.342-0.607-0.428c-0.218-0.086-0.545-0.131-0.981-0.136c-0.504-0.005-1.009-0.009-1.513-0.012
					c-0.025,3.872-0.05,7.745-0.075,11.617c-0.003,0.446,0.02,0.802,0.067,1.067c0.05,0.265,0.125,0.476,0.229,0.63
					c0.103,0.157,0.241,0.279,0.418,0.367c0.176,0.089,0.453,0.176,0.828,0.264c-0.001,0.185-0.003,0.37-0.005,0.555
					c-1.756-0.018-3.511-0.024-5.267-0.021c0-0.185-0.001-0.37-0.001-0.556c0.23-0.053,0.435-0.11,0.611-0.17
					c0.177-0.061,0.321-0.135,0.434-0.222c0.111-0.087,0.204-0.198,0.276-0.334c0.074-0.136,0.132-0.322,0.174-0.556
					c0.044-0.234,0.065-0.579,0.065-1.032c0.006-3.872,0.012-7.745,0.018-11.617c-0.5,0-1,0-1.501,0
					c-0.372,0.001-0.68,0.036-0.922,0.104c-0.241,0.07-0.466,0.212-0.67,0.429c-0.205,0.216-0.392,0.524-0.559,0.922
					c-0.168,0.398-0.325,0.9-0.47,1.506c-0.391,0.003-0.781,0.006-1.172,0.011C170.882,189.591,170.868,188.275,170.854,186.959z"/>
				<path fill="#E6D9C4" d="M194.357,202.831c0.008-0.185,0.016-0.37,0.023-0.555c0.388-0.06,0.678-0.129,0.871-0.211
					c0.192-0.082,0.339-0.202,0.438-0.36c0.101-0.158,0.156-0.373,0.169-0.645c0.012-0.257-0.006-0.536-0.054-0.837
					s-0.121-0.64-0.22-1.015c-0.121-0.494-0.242-0.988-0.363-1.481c-1.811-0.082-3.621-0.152-5.432-0.211
					c-0.144,0.366-0.288,0.732-0.431,1.099c-0.221,0.553-0.364,0.973-0.436,1.258c-0.07,0.285-0.109,0.545-0.116,0.779
					c-0.014,0.454,0.093,0.79,0.321,1.009c0.229,0.219,0.584,0.37,1.065,0.455c-0.007,0.185-0.013,0.371-0.02,0.556
					c-1.639-0.056-3.278-0.102-4.918-0.139c0.004-0.185,0.008-0.37,0.013-0.555c0.432-0.059,0.812-0.296,1.143-0.711
					c0.331-0.416,0.656-1.012,0.979-1.79c1.728-4.141,3.501-8.271,5.32-12.39c0.629,0.024,1.257,0.049,1.886,0.076
					c1.173,4.27,2.308,8.545,3.403,12.824c0.154,0.599,0.295,1.057,0.421,1.374c0.126,0.317,0.285,0.567,0.476,0.752
					c0.19,0.185,0.457,0.327,0.798,0.43c-0.011,0.185-0.021,0.37-0.031,0.555C197.896,202.997,196.127,202.909,194.357,202.831z
					 M190.14,196.539c1.627,0.054,3.255,0.118,4.882,0.19c-0.632-2.47-1.275-4.938-1.932-7.405
					C192.092,191.726,191.108,194.13,190.14,196.539z"/>
				<path fill="#E6D9C4" d="M202.22,203.246c0.012-0.185,0.023-0.37,0.034-0.555c0.483-0.092,0.812-0.206,0.981-0.341
					c0.172-0.138,0.291-0.34,0.358-0.609c0.068-0.268,0.12-0.682,0.156-1.24c0.212-3.264,0.424-6.528,0.637-9.792
					c0.033-0.521,0.038-0.901,0.015-1.142c-0.024-0.241-0.078-0.429-0.161-0.567s-0.196-0.251-0.343-0.34
					c-0.146-0.088-0.397-0.193-0.756-0.314c0.012-0.185,0.022-0.37,0.034-0.555c2.173,0.134,4.346,0.285,6.517,0.451
					c1.264,0.097,2.267,0.308,3.011,0.627c0.744,0.32,1.279,0.749,1.607,1.282c0.329,0.533,0.457,1.196,0.387,1.987
					c-0.058,0.656-0.24,1.212-0.545,1.672c-0.305,0.459-0.683,0.829-1.132,1.109c-0.45,0.281-1.018,0.529-1.703,0.746
					c-0.002,0.034-0.005,0.068-0.008,0.102c1.036,0.396,1.799,0.941,2.287,1.633s0.691,1.482,0.612,2.371
					c-0.091,1.025-0.399,1.84-0.922,2.447c-0.521,0.607-1.212,1.021-2.071,1.242c-0.861,0.221-1.885,0.284-3.072,0.195
					C206.17,203.504,204.195,203.368,202.22,203.246z M208.366,195.103c1.188,0.089,2.118-0.116,2.793-0.619
					c0.675-0.503,1.059-1.28,1.146-2.336c0.043-0.52-0.011-0.959-0.16-1.316c-0.148-0.358-0.371-0.651-0.667-0.88
					c-0.296-0.229-0.655-0.403-1.076-0.523s-0.88-0.2-1.38-0.237c-0.301-0.023-0.697-0.044-1.19-0.065
					c-0.492-0.021-0.862-0.031-1.107-0.033c-0.137,1.954-0.273,3.908-0.411,5.862C206.998,195.002,207.682,195.052,208.366,195.103z
					 M205.793,202.402c0.557,0.092,1.181,0.162,1.873,0.213c1.007,0.075,1.798,0.013,2.375-0.191
					c0.577-0.204,1.011-0.539,1.302-1.004c0.29-0.465,0.467-1.063,0.528-1.794c0.061-0.73-0.026-1.345-0.263-1.843
					c-0.237-0.498-0.634-0.887-1.192-1.167c-0.558-0.279-1.345-0.458-2.358-0.534c-0.604-0.045-1.209-0.088-1.813-0.131
					C206.094,198.101,205.943,200.251,205.793,202.402z"/>
				<path fill="#E6D9C4" d="M221.153,203.785c1.005,0.106,2.009,0.216,3.013,0.33c0.33,0.037,0.607,0.05,0.834,0.038
					c0.227-0.011,0.423-0.048,0.589-0.109c0.167-0.06,0.321-0.153,0.465-0.277c0.143-0.124,0.285-0.292,0.427-0.503
					s0.285-0.482,0.429-0.812c0.146-0.329,0.334-0.826,0.571-1.491c0.39,0.046,0.78,0.094,1.17,0.142
					c-0.262,1.5-0.523,2.999-0.783,4.499c-3.435-0.418-6.872-0.796-10.313-1.132c0.019-0.184,0.036-0.369,0.055-0.553
					c0.485-0.074,0.818-0.176,0.993-0.306c0.177-0.132,0.303-0.33,0.379-0.596c0.078-0.266,0.145-0.677,0.201-1.234
					c0.328-3.254,0.656-6.509,0.984-9.764c0.052-0.519,0.069-0.899,0.055-1.141c-0.016-0.241-0.063-0.432-0.141-0.572
					c-0.078-0.141-0.188-0.258-0.33-0.353c-0.143-0.094-0.392-0.208-0.745-0.341c0.018-0.185,0.036-0.369,0.054-0.553
					c1.669,0.163,3.338,0.335,5.005,0.517c-0.02,0.184-0.04,0.368-0.06,0.553c-0.358,0.052-0.615,0.106-0.769,0.162
					c-0.154,0.056-0.285,0.139-0.393,0.249c-0.107,0.11-0.198,0.287-0.272,0.53c-0.073,0.243-0.138,0.635-0.195,1.177
					C221.968,196.091,221.561,199.938,221.153,203.785z"/>
				<path fill="#E6D9C4" d="M244.163,192.226c-0.175,1.128-0.35,2.257-0.524,3.385c-0.384-0.06-0.768-0.119-1.151-0.177
					c-0.062-0.383-0.134-0.724-0.218-1.02s-0.179-0.547-0.284-0.754c-0.105-0.207-0.23-0.379-0.374-0.516
					c-0.146-0.136-0.325-0.242-0.539-0.315c-0.215-0.074-0.475-0.133-0.782-0.179c-1.244-0.182-2.489-0.359-3.735-0.531
					c-0.271,1.963-0.541,3.926-0.812,5.889c0.832,0.115,1.664,0.232,2.496,0.351c0.342,0.049,0.616,0.041,0.825-0.024
					c0.208-0.065,0.393-0.201,0.554-0.406s0.336-0.539,0.523-1.001c0.366,0.054,0.732,0.108,1.1,0.164
					c-0.216,1.436-0.432,2.872-0.646,4.308c-0.363-0.054-0.727-0.108-1.089-0.162c-0.042-0.464-0.112-0.821-0.211-1.069
					c-0.098-0.247-0.23-0.433-0.398-0.557c-0.169-0.124-0.435-0.213-0.799-0.265c-0.83-0.12-1.66-0.236-2.49-0.351
					c-0.298,2.161-0.596,4.323-0.894,6.484c1.188,0.164,2.377,0.333,3.564,0.506c0.374,0.055,0.683,0.069,0.925,0.04
					c0.243-0.029,0.459-0.107,0.65-0.236c0.19-0.128,0.37-0.306,0.538-0.533c0.167-0.227,0.315-0.466,0.443-0.718
					c0.129-0.252,0.308-0.621,0.539-1.106c0.381,0.058,0.762,0.117,1.142,0.176c-0.276,1.3-0.553,2.601-0.828,3.901
					c-3.525-0.545-7.056-1.047-10.591-1.505c0.024-0.184,0.048-0.367,0.072-0.551c0.488-0.059,0.824-0.151,1.003-0.275
					c0.181-0.126,0.313-0.319,0.398-0.583c0.086-0.263,0.166-0.672,0.239-1.227c0.431-3.243,0.861-6.486,1.291-9.729
					c0.069-0.517,0.099-0.896,0.092-1.138c-0.009-0.242-0.05-0.434-0.123-0.577s-0.18-0.264-0.319-0.362s-0.385-0.22-0.734-0.365
					c0.023-0.184,0.047-0.368,0.071-0.551C236.783,191.128,240.477,191.654,244.163,192.226z"/>
				<path fill="#E6D9C4" d="M254.999,201.513c0.271,0.05,0.504,0.154,0.698,0.313c0.193,0.159,0.328,0.359,0.403,0.6
					c0.075,0.241,0.087,0.495,0.037,0.763c-0.052,0.275-0.157,0.511-0.317,0.708c-0.16,0.197-0.358,0.334-0.595,0.409
					s-0.485,0.089-0.746,0.041c-0.253-0.046-0.475-0.146-0.665-0.3c-0.191-0.154-0.325-0.352-0.405-0.593s-0.095-0.499-0.045-0.774
					c0.048-0.268,0.149-0.501,0.305-0.7c0.155-0.198,0.35-0.338,0.584-0.419C254.488,201.481,254.736,201.465,254.999,201.513z"/>
				<path fill="#E6D9C4" d="M262.642,202.984c0.271,0.055,0.501,0.163,0.693,0.326c0.19,0.162,0.322,0.365,0.394,0.607
					c0.07,0.242,0.078,0.497,0.023,0.764c-0.057,0.274-0.167,0.508-0.33,0.702c-0.164,0.194-0.364,0.328-0.603,0.398
					c-0.237,0.071-0.487,0.081-0.747,0.028c-0.253-0.051-0.473-0.155-0.661-0.312c-0.188-0.157-0.318-0.357-0.395-0.6
					c-0.075-0.243-0.086-0.501-0.031-0.775c0.053-0.268,0.158-0.499,0.317-0.695c0.159-0.195,0.356-0.332,0.592-0.408
					C262.131,202.943,262.38,202.932,262.642,202.984z"/>
				<path fill="#E6D9C4" d="M270.263,204.592c0.27,0.059,0.499,0.172,0.688,0.338c0.188,0.166,0.316,0.371,0.383,0.614
					c0.066,0.244,0.069,0.498,0.011,0.764c-0.062,0.273-0.176,0.505-0.343,0.696s-0.37,0.321-0.609,0.388
					c-0.24,0.067-0.489,0.072-0.749,0.015c-0.252-0.056-0.47-0.164-0.655-0.324c-0.186-0.161-0.313-0.362-0.385-0.606
					s-0.077-0.502-0.019-0.776c0.059-0.267,0.168-0.496,0.33-0.689c0.163-0.192,0.362-0.326,0.6-0.398
					S270.002,204.534,270.263,204.592z"/>
			</g>
		</g>
		<path id="XMLID_12_" fill-rule="evenodd" clip-rule="evenodd" fill="#404041" d="M172.873,229.197l2.661,5.754l6.176,0.653
			l-4.657,4.312l1.282,6.063l-5.543-3.092l-5.382,3.092l1.228-6.219l-4.607-4.155l6.307-0.749L172.873,229.197L172.873,229.197z
			 M194.183,228.096l1.887,4.078l4.374,0.46l-3.299,3.053l0.906,4.296l-3.926-2.189l-3.811,2.189l0.869-4.404l-3.259-2.944
			l4.463-0.529L194.183,228.096L194.183,228.096z M151.563,228.096l1.885,4.078l4.371,0.46l-3.299,3.053l0.911,4.296l-3.926-2.189
			l-3.815,2.189l0.876-4.404l-3.264-2.944l4.466-0.529L151.563,228.096z"/>
		<g>
			<path fill-rule="evenodd" clip-rule="evenodd" fill="#2F2F30" d="M209.066,120.162l-0.144,3.768c0,0,5.633-2.081,9.364-0.79
				c9.764,3.38,6.48,15.936,1.292,21.061s-13.53,9.776-13.634,9.257s7.821,0.359,12.485-4.162c4.665-4.521,8.611-8.109,9.688-13.06
				c1.419-6.527-0.381-16.283-7.857-17.653C215.646,117.685,209.066,120.162,209.066,120.162z"/>
			<path fill-rule="evenodd" clip-rule="evenodd" fill="#2F2F30" d="M207.977,122.06c5.926-2.528,12.992-5.465,17.337,1.659
				c5.235,8.585-0.605,19.959-8.174,24.854c-6.406,4.144-11.147,4.153-17.959,5.66c10.376,1.539,22.627-3.139,28.066-12.383
				c4.862-8.262,3.323-22.376-7.153-24.143c-3.198-0.539-8.099,0.313-10.626,1.785C208.208,120.226,209.129,121.06,207.977,122.06z"
				/>
			<path fill-rule="evenodd" clip-rule="evenodd" fill="#2F2F30" d="M208.671,126.729c14.403-7.517,21.332,12.471-1.65,22.675
				c7.632-1.66,15.395-8.467,15.832-15.942C223.59,120.832,209.67,122.779,208.671,126.729z"/>
			<path fill-rule="evenodd" clip-rule="evenodd" fill="#2F2F30" d="M162.674,118.928c-4.781-0.144-41.612-2.678-27.939-7.917
				c11.034-4.229,40.525-4.043,54.36-3.082c4.487,0.312,25.783,2.108,20.881,6.488C204.685,119.143,173.263,119.247,162.674,118.928
				L162.674,118.928z M180.068,117.784c4.756-0.196,26.553-1.569,27.493-4.41c0.9-2.722-20.68-4.324-23.907-4.505
				c-11.987-0.673-40.831-0.76-49.797,2.912c-1.206,0.494-1.894,0.838-1.947,1.458C135.26,118.361,170.17,118.193,180.068,117.784z"
				/>
			<path fill-rule="evenodd" clip-rule="evenodd" fill="#2F2F30" d="M196.583,156.666c8.233-9.808,9.101-27.229,10.669-41.888
				c1.419-0.396,2.582-0.846,3.417-1.355C208.943,129.083,208.019,147.459,196.583,156.666z"/>
			<path fill-rule="evenodd" clip-rule="evenodd" fill="#2F2F30" d="M134.335,114.989c0.216,11.003,2.025,29.988,9.422,40.054
				c-11.759-11.226-12.122-42.498-11.973-41.898C131.531,113.657,132.434,114.091,134.335,114.989z"/>
			<path fill-rule="evenodd" clip-rule="evenodd" fill="#2F2F30" d="M143.757,155.042c5.554,5.301,14.086,8.604,27.484,8.604
				c11.972,0,19.947-2.638,25.342-6.981c-4.87,5.801-12.698,9.465-25.604,9.465C156.908,166.131,148.705,161.775,143.757,155.042z"
				/>
			<g>
				<path fill-rule="evenodd" clip-rule="evenodd" fill="#2F2F30" d="M173.482,124.19c-5.605,0.831-14.347,1.613-25.406,0.955
					c-2.282,16.973,2.186,31.432,22.094,35.441c-31.129,1.405-33.484-24.389-34.027-41.22c8.646,2.982,20.976,4.848,34.663,4.848
					C171.704,124.215,172.596,124.206,173.482,124.19z"/>
				<path fill-rule="evenodd" clip-rule="evenodd" fill="#2F2F30" d="M203.513,120.004c-1.341,11.473-1.968,29.761-10.032,35.713
					c-3.014,2.225-11.051,5.023-10.477,4.593c11.145-8.359,11.982-25.19,11.526-38.139
					C197.791,121.563,200.805,120.835,203.513,120.004z"/>
			</g>
			<path fill-rule="evenodd" clip-rule="evenodd" fill="#2F2F30" d="M169.33,112.307c14.094,0,26.407,0.995,33.037,2.476
				c-6.63,1.481-18.943,2.476-33.037,2.476s-26.407-0.995-33.037-2.476C142.923,113.302,155.236,112.307,169.33,112.307z"/>
			<path fill-rule="evenodd" clip-rule="evenodd" fill="#2F2F30" d="M163.84,103.413c6.772-1.494,10.966-3.465,5.317-7.74
				c-2.852-2.159-12.8-6.88-11.988-9.66c0.969-3.316,11.581-3.529,14.429-5.693c6.139-4.665-12.617-12.648,0.381-19.543l1.525-0.77
				l0,0c-11.014,3.821-6.762,8.941-3.265,14.716c3.645,6.017-1.026,5.511-7.623,7.147c-13.826,3.43-4.682,8.421,1.908,12.545
				c6.43,4.024,7.898,5.669-1.273,7.605L163.84,103.413z"/>
			<path fill-rule="evenodd" clip-rule="evenodd" fill="#2F2F30" d="M173.555,104.058c13.453-2.586,19.387-5.689,5.057-11.365
				c-2.286-0.905-14.61-4.774-11.712-6.645c4.531-2.923,19.145-1.749,11.895-9.899c-4.847-5.449-11.908-9.887-2.416-15.497
				c0.967-0.572,2.99-1.576,3.976-2.076c-2.605,0.869-3.913,1.276-6.054,2.656c-8.307,5.351-1.163,10.547,2.991,15.513
				c4.198,5.018-0.555,5.013-6.83,6.422c-18.582,4.173,8.457,10.469,12.784,14.094c3.434,2.877-8.039,4.381-10.445,4.817
				L173.555,104.058z"/>
		</g>
	</g>
</g>
</svg>
